<svg xmlns="http://www.w3.org/2000/svg" width="12" height="12" fill="none"><path fill="#212529" d="M3.812 7.604h.875v-1.75h2.334v1.25l1.688-1.687-1.688-1.694v1.256H4.34q-.225 0-.376.151a.5.5 0 0 0-.152.374zm2.19 3.859q-.198 0-.39-.08a1.1 1.1 0 0 1-.35-.236L.853 6.738a1.1 1.1 0 0 1-.237-.349 1 1 0 0 1 0-.777q.08-.191.237-.35L5.262.853q.157-.157.349-.237a1 1 0 0 1 .777 0q.192.08.35.237l4.409 4.409q.157.157.237.349a1 1 0 0 1 0 .777 1.1 1.1 0 0 1-.237.35l-4.409 4.409a1.1 1.1 0 0 1-.349.237q-.19.08-.388.079"/></svg>